<?xml version="1.0" standalone="no"?>
<!DOCTYPE svg PUBLIC "-//W3C//DTD SVG 20010904//EN"
 "http://www.w3.org/TR/2001/REC-SVG-20010904/DTD/svg10.dtd">
<svg version="1.0" xmlns="http://www.w3.org/2000/svg"
 width="512.000000pt" height="512.000000pt" viewBox="0 0 512.000000 512.000000"
 preserveAspectRatio="xMidYMid meet">

<g transform="translate(0.000000,512.000000) scale(0.100000,-0.100000)"
fill="#000000" stroke="none">
<path d="M1058 5102 c-98 -36 -177 -115 -210 -212 -10 -27 -13 -366 -16 -1411
l-3 -1376 -72 -5 c-125 -8 -214 -64 -264 -166 -26 -53 -28 -67 -31 -203 -3
-120 -1 -152 12 -178 9 -17 21 -31 26 -31 5 0 -1 -26 -13 -57 -21 -56 -22 -72
-22 -383 1 -304 2 -330 23 -405 89 -319 327 -557 647 -647 80 -23 83 -23 960
-26 658 -2 886 0 908 9 39 16 57 57 57 129 l0 60 528 0 c619 0 601 -2 693 89
49 49 61 68 78 127 14 50 43 305 106 933 l87 864 42 41 c61 60 68 95 64 322
-3 179 -4 191 -27 227 -13 21 -42 50 -64 65 l-41 27 -1266 0 -1266 0 -41 -27
c-22 -15 -51 -44 -64 -65 -23 -36 -24 -48 -27 -229 -4 -228 2 -259 62 -318
l43 -42 37 -369 c20 -204 39 -387 42 -407 l6 -38 -104 0 -103 0 -17 55 c-17
54 -17 56 2 75 29 29 32 55 28 207 -3 127 -5 143 -31 195 -50 102 -139 158
-264 166 l-73 5 0 1331 c0 840 -4 1357 -10 1401 -7 43 -21 89 -39 119 -75 133
-244 199 -383 148z m158 -198 c68 -32 64 43 64 -1189 l0 -1115 -120 0 -120 0
0 1115 c0 1228 -4 1156 62 1188 42 21 71 21 114 1z m3244 -2354 l0 -150 -385
0 c-413 0 -425 -1 -451 -51 -27 -52 -8 -115 41 -137 18 -9 121 -12 356 -12
l330 0 -6 -42 c-3 -24 -41 -403 -85 -843 -44 -440 -84 -817 -90 -837 -6 -20
-22 -46 -37 -57 -25 -21 -36 -21 -548 -21 l-522 0 -6 123 c-6 140 -31 248 -81
354 -94 197 -242 345 -439 439 -72 33 -209 74 -253 74 -13 0 -25 4 -29 9 -3 6
-21 169 -40 363 -19 194 -37 372 -40 396 l-6 42 330 0 c355 0 371 2 397 51 17
34 18 60 2 94 -24 54 -34 55 -453 55 l-385 0 0 150 0 150 1200 0 1200 0 0
-150z m-3180 -300 l0 -150 -120 0 -120 0 0 150 0 150 120 0 120 0 0 -150z
m325 -362 c38 -17 55 -58 55 -128 l0 -60 -500 0 -500 0 0 63 c1 68 15 103 51
123 33 18 855 20 894 2z m-745 -598 c0 -229 5 -255 55 -278 51 -23 107 -7 131
39 11 22 14 76 14 239 l0 210 100 0 100 0 0 -310 c0 -333 2 -350 51 -376 34
-17 60 -18 94 -2 53 24 55 41 55 378 l0 310 59 0 c54 0 62 -3 79 -27 58 -81
56 -69 62 -593 5 -471 6 -487 27 -544 13 -33 34 -77 48 -98 l25 -38 -230 0
c-278 0 -344 11 -480 77 -79 38 -109 60 -181 132 -71 71 -94 102 -133 181 -66
135 -76 199 -76 498 0 260 5 298 46 370 l25 42 64 0 65 0 0 -210z m1433 -104
c212 -41 395 -182 491 -378 62 -127 76 -205 76 -428 l0 -180 -368 0 c-405 0
-432 3 -511 60 -37 27 -101 110 -101 132 0 4 157 8 350 8 376 0 390 2 416 51
17 34 18 60 2 94 -24 53 -36 55 -428 55 l-360 0 0 100 0 100 160 0 c174 0 203
7 226 51 27 52 8 115 -41 137 -17 8 -83 12 -185 12 l-160 0 0 100 0 100 179 0
c114 0 206 -5 254 -14z"/>
<path d="M3211 2386 c-87 -48 -50 -186 49 -186 51 0 100 49 100 99 0 75 -83
124 -149 87z"/>
<path d="M3081 4530 c-128 -27 -230 -148 -234 -278 -4 -124 54 -224 163 -280
61 -32 70 -34 145 -30 91 5 143 27 200 83 55 56 78 109 83 198 4 71 2 82 -27
142 -19 37 -49 79 -73 99 -65 56 -172 83 -257 66z m93 -200 c8 0 25 -12 40
-26 38 -38 36 -95 -3 -135 -77 -77 -199 6 -157 106 16 36 67 69 94 60 8 -3 19
-5 26 -5z"/>
<path d="M3845 3917 c-117 -30 -223 -117 -273 -225 -24 -50 -27 -69 -27 -162
0 -97 2 -110 31 -170 39 -83 111 -155 194 -194 59 -28 74 -31 165 -31 92 0
106 3 168 32 259 123 310 459 98 655 -94 88 -236 125 -356 95z m150 -198 c58
-16 120 -84 133 -146 44 -202 -198 -327 -340 -176 -75 79 -62 221 26 288 57
43 110 53 181 34z"/>
</g>
</svg>
