<?xml version="1.0" standalone="no"?>
<!DOCTYPE svg PUBLIC "-//W3C//DTD SVG 20010904//EN"
 "http://www.w3.org/TR/2001/REC-SVG-20010904/DTD/svg10.dtd">
<svg version="1.0" xmlns="http://www.w3.org/2000/svg"
 width="512.000000pt" height="512.000000pt" viewBox="0 0 512.000000 512.000000"
 preserveAspectRatio="xMidYMid meet">

<g transform="translate(0.000000,512.000000) scale(0.100000,-0.100000)"
fill="#000000" stroke="none">
<path d="M1368 4933 c-160 -159 -178 -181 -178 -211 0 -25 25 -73 103 -195
132 -208 123 -192 106 -182 -8 5 -87 55 -176 112 -122 78 -170 103 -195 103
-30 0 -56 -23 -281 -248 -204 -204 -247 -253 -247 -276 0 -15 23 -70 52 -123
28 -53 47 -94 41 -92 -6 2 -53 26 -104 53 -70 36 -101 48 -119 43 -14 -3 -102
-83 -197 -180 -145 -145 -173 -178 -173 -202 0 -26 81 -111 602 -632 l602
-602 -47 -50 c-79 -85 -80 -82 151 -313 231 -231 228 -230 313 -151 l50 46
207 -205 c132 -131 229 -218 267 -241 210 -125 464 -159 690 -91 215 64 402
32 537 -93 115 -107 314 -379 556 -760 89 -140 224 -298 299 -349 101 -69 160
-87 299 -92 138 -5 197 8 299 61 77 41 181 145 223 224 40 76 72 197 72 272 0
81 -24 182 -61 259 -60 124 -226 269 -501 439 -277 170 -599 415 -668 507
-113 152 -135 303 -74 506 26 87 29 108 29 245 0 173 -17 250 -84 383 -56 112
-109 177 -305 371 l-175 175 44 48 c77 82 78 81 -153 311 -182 182 -200 197
-233 197 -28 0 -43 -8 -79 -45 l-44 -45 -601 600 c-560 559 -603 600 -635 600
-30 0 -51 -17 -212 -177z m777 -573 l560 -560 -225 -225 -225 -225 -210 210
-210 210 -55 -55 -55 -55 210 -210 210 -210 -83 -82 -82 -83 -325 325 -325
325 -57 -58 -58 -57 325 -325 325 -325 -275 -275 -275 -275 -562 562 -563 563
104 104 104 104 195 -106 c107 -59 204 -107 215 -107 34 0 75 43 75 76 0 19
-37 99 -101 216 -56 102 -102 190 -102 194 0 10 352 364 362 364 3 0 141 -86
304 -191 164 -105 310 -193 326 -196 21 -4 34 1 58 25 50 50 64 20 -198 430
-89 140 -162 257 -162 260 0 8 202 212 210 212 3 0 257 -252 565 -560z m918
-668 l117 -117 -103 -103 -102 -102 -240 0 -240 0 220 220 c121 121 222 220
225 220 3 0 58 -53 123 -118z m159 -409 c26 -26 48 -52 48 -58 0 -5 -310 -320
-690 -700 l-690 -690 -55 55 -55 55 692 692 c381 381 695 693 698 693 2 0 26
-21 52 -47z m-442 -108 l-34 -35 -240 0 -240 0 34 35 34 35 240 0 240 0 -34
-35z m690 -142 c88 -96 123 -145 161 -229 70 -153 78 -311 27 -500 -27 -100
-32 -137 -32 -229 0 -195 58 -331 203 -475 100 -99 348 -288 539 -410 517
-330 587 -405 587 -635 0 -80 -4 -97 -32 -157 -124 -264 -448 -326 -659 -126
-73 69 -169 197 -284 382 -112 181 -185 286 -310 448 -169 219 -263 298 -425
355 -71 24 -93 27 -205 27 -109 0 -141 -4 -243 -32 -137 -37 -236 -41 -350
-16 -141 32 -244 91 -370 213 l-78 75 693 693 c381 381 696 693 700 693 3 0
39 -35 78 -77z m-980 -148 l-95 -95 -232 0 c-128 0 -233 3 -233 7 0 4 39 47
87 95 l88 88 240 0 240 0 -95 -95z m-310 -310 l-64 -65 -240 0 -240 0 64 65
64 65 240 0 240 0 -64 -65z m-432 -432 l-208 -208 -120 120 -120 120 87 87 88
88 240 0 240 0 -207 -207z"/>
<path d="M4430 819 c-87 -39 -146 -117 -157 -207 -11 -100 46 -207 136 -254
66 -34 162 -38 226 -9 113 51 176 185 141 303 -43 148 -210 229 -346 167z
m151 -149 c10 -6 26 -25 35 -42 41 -80 -38 -168 -121 -134 -47 20 -69 57 -62
104 11 67 87 104 148 72z"/>
</g>
</svg>
