<?xml version="1.0" standalone="no"?>
<!DOCTYPE svg PUBLIC "-//W3C//DTD SVG 20010904//EN"
 "http://www.w3.org/TR/2001/REC-SVG-20010904/DTD/svg10.dtd">
<svg version="1.0" xmlns="http://www.w3.org/2000/svg"
 width="512.000000pt" height="512.000000pt" viewBox="0 0 512.000000 512.000000"
 preserveAspectRatio="xMidYMid meet">

<g transform="translate(0.000000,512.000000) scale(0.100000,-0.100000)"
fill="#000000" stroke="none">
<path d="M1619 5105 c-212 -58 -299 -324 -164 -501 38 -50 121 -100 187 -115
67 -14 197 -4 442 37 81 13 150 24 152 24 2 0 4 -63 4 -140 l0 -140 -57 0
c-112 -1 -195 -18 -280 -60 -133 -65 -233 -180 -278 -317 l-17 -53 -487 0
c-322 0 -498 -4 -519 -11 -17 -6 -39 -23 -49 -37 -17 -25 -18 -59 -18 -489 l0
-463 33 -32 32 -33 507 -5 506 -5 12 -40 c36 -121 157 -266 266 -319 107 -52
141 -56 454 -56 321 0 361 5 467 62 112 60 223 195 259 316 l12 42 88 0 c137
0 224 -41 290 -136 52 -76 59 -122 59 -387 0 -193 3 -244 15 -267 31 -60 31
-60 513 -60 287 0 450 4 470 11 65 23 67 30 70 379 4 356 -7 524 -43 658 -99
370 -389 684 -745 805 -148 50 -210 59 -471 64 l-246 5 -13 42 c-23 76 -70
155 -128 215 -111 113 -212 157 -389 168 l-103 6 0 139 c0 104 3 138 13 138 6
0 59 -9 117 -19 165 -30 380 -54 436 -48 106 11 204 78 253 172 103 201 -32
442 -258 462 -69 6 -338 -28 -528 -66 l-142 -29 -78 18 c-147 35 -474 81 -558
79 -22 0 -61 -7 -86 -14z m336 -226 c77 -11 189 -31 249 -45 131 -29 157 -29
261 -5 97 23 318 59 435 70 99 9 141 0 170 -36 43 -55 15 -143 -53 -161 -55
-15 -364 24 -570 73 l-97 23 -128 -29 c-154 -34 -385 -68 -478 -71 -82 -2
-117 15 -134 68 -20 61 14 122 75 136 28 6 106 0 270 -23z m715 -848 c69 -26
114 -63 155 -124 54 -84 57 -113 53 -632 l-3 -470 -26 -56 c-33 -71 -87 -125
-158 -158 l-56 -26 -290 0 c-282 0 -291 1 -341 23 -60 27 -123 89 -156 152
l-23 45 0 525 c0 496 1 527 19 560 26 49 62 90 107 123 72 53 92 56 391 56
251 1 283 -1 328 -18z m-1070 -721 l0 -320 -425 0 -425 0 0 320 0 320 425 0
425 0 0 -320z m1901 310 c409 -41 726 -310 842 -715 18 -63 21 -107 24 -423
l4 -352 -318 2 -318 3 -6 220 c-6 232 -8 244 -63 353 -31 62 -122 157 -191
201 -70 45 -161 70 -276 78 l-99 6 0 319 0 318 149 0 c82 0 195 -5 252 -10z"/>
<path d="M3999 1475 c-46 -25 -259 -369 -363 -585 -135 -280 -147 -426 -53
-604 41 -78 145 -182 223 -223 161 -85 360 -80 519 12 171 100 285 328 255
510 -25 156 -137 391 -337 709 -120 190 -166 224 -244 181z m136 -415 c82
-135 188 -344 215 -424 41 -124 16 -238 -73 -326 -51 -51 -96 -75 -167 -88
-191 -35 -371 111 -372 301 0 105 78 279 255 570 53 87 61 96 72 80 7 -10 38
-61 70 -113z"/>
</g>
</svg>
